<svg width="1200" height="1200" xmlns="http://www.w3.org/2000/svg" xmlns:xlink="http://www.w3.org/1999/xlink" version="1.1"><g transform="scale(24.69135923059977) translate(5.339999728732638, -14.430000729031033)">                        <g fill="#111111"><path d="M19.8 60.6 c-10.98 0 -18.18 -5.58 -18.18 -10.92 c0 -2.52 1.32 -4.26 4.32 -4.26 c6.48 0.06 5.28 11.22 14.28 11.22 c3.48 0 5.7 -1.86 5.7 -4.98 c0 -11.7 -23.52 -4.26 -23.58 -21.84 c0 -7.62 6.36 -12.96 16.26 -12.96 c9.96 0 17.28 5.28 17.22 10.74 c0 2.64 -1.5 4.38 -4.56 4.38 c-7.26 0 -5.4 -11.22 -12.84 -11.22 c-3.78 0 -5.58 2.34 -5.58 5.28 c0 12.84 23.46 5.34 23.46 22.14 c0 7.92 -7.62 12.42 -16.5 12.42 z"/></g>        </g></svg>